<svg xmlns="http://www.w3.org/2000/svg" xmlns:xlink="http://www.w3.org/1999/xlink" xmlns:lucid="lucid" width="960.56" height="951.59"><g transform="translate(-726.592646261303 -274.5000243716777)" lucid:page-tab-id="0_0"><path d="M928.6 277.5v172.95M928.6 277.54V276" stroke="#3a414a" stroke-width="3" fill="none"/><path d="M928.6 464.94l-7.5-13h15z" stroke="#3a414a" stroke-width="3" fill="#3a414a"/><path d="M923.47 470.4a9.83 9.83 0 0 1 10.24 0l191.77 117.07a3.66 3.66 0 0 1 0 6.25L933.7 710.8a9.83 9.83 0 0 1-10.23 0L731.7 593.72a3.66 3.66 0 0 1 0-6.25z" stroke="#000" stroke-width="2" fill="#fff"/><use xlink:href="#a" transform="matrix(1,0,0,1,731.592646261303,472.2592830814949) translate(83.92150390625 106.65625)"/><use xlink:href="#b" transform="matrix(1,0,0,1,731.592646261303,472.2592830814949) translate(125.3145703125 144.40703125)"/><path d="M928.6 714.74V873.5" stroke="#3a414a" stroke-width="3" fill="none"/><path d="M927.4 713.18l1.2.06 1.18-.06.3-.05v1.65h-2.96v-1.65z" stroke="#3a414a" stroke-width=".05" fill="#3a414a"/><path d="M928.6 888l-7.5-13h15z" stroke="#3a414a" stroke-width="3" fill="#3a414a"/><path d="M786.22 899.33a6 6 0 0 1 6-6h288a6 6 0 0 1 6 6v109.34a6 6 0 0 1-6 6h-288a6 6 0 0 1-6-6z" stroke="#000" stroke-width="2" fill="#fff"/><use xlink:href="#c" transform="matrix(1,0,0,1,791.222264490011,898.3333675949671) translate(85.49072265625 67.1875)"/><use xlink:href="#d" transform="matrix(1,0,0,1,791.222264490011,898.3333675949671) translate(156.06396484375 67.1875)"/><use xlink:href="#e" transform="matrix(1,0,0,1,791.222264490011,898.3333675949671) translate(188.58935546875 67.1875)"/><path d="M936.22 1017.17v189.93" stroke="#3a414a" stroke-width="3" fill="none"/><path d="M937.7 1017.2h-2.95v-1.53h2.95z" stroke="#3a414a" stroke-width=".05" fill="#3a414a"/><path d="M936.22 1221.6l-7.5-13h15z" stroke="#3a414a" stroke-width="3" fill="#3a414a"/><path d="M763.05 736.72a6 6 0 0 1 6-6h112.13a6 6 0 0 1 6 6v62.54a6 6 0 0 1-6 6H769.05a6 6 0 0 1-6-6z" fill="none"/><use xlink:href="#f" transform="matrix(1,0,0,1,768.0535630936795,735.7194097809238) translate(0 51.90104166666667)"/><path d="M1129.73 590.6h311.14a24 24 0 0 1 24 24v491.38a24 24 0 0 1-24 24H953.7" stroke="#3a414a" stroke-width="3" fill="none"/><path d="M1129.77 592.07h-1.8l.16-.53.1-.95-.1-.96-.16-.52h1.8z" stroke="#3a414a" stroke-width=".05" fill="#3a414a"/><path d="M939.22 1129.98l13-7.5v15z" stroke="#3a414a" stroke-width="3" fill="#3a414a"/><path d="M1544.85 727.2a6 6 0 0 1 6-6h130.3a6 6 0 0 1 6 6v62.55a6 6 0 0 1-6 6h-130.3a6 6 0 0 1-6-6z" fill="none"/><g><use xlink:href="#g" transform="matrix(1,0,0,1,1549.8537082052312,726.2111513849474) translate(0 51.90104166666667)"/></g><defs><path d="M783 20c-382 0-661-292-661-764 0-473 279-766 661-766 302 0 548 182 601 489h-190c-42-204-217-313-411-313-268 0-476 208-476 590 0 381 209 588 476 588 195 0 369-110 411-313h190c-52 303-296 489-601 489" id="h"/><path d="M613 24c-304 0-509-231-509-576 0-350 205-580 509-580 305 0 511 230 511 580 0 345-206 576-511 576zm0-161c226 0 329-195 329-415 0-222-103-419-329-419-223 0-326 196-326 419 0 220 103 415 326 415" id="i"/><path d="M338-670V0H158v-1118h173l1 207c72-158 192-221 342-221 226 0 378 139 378 422V0H872v-695c0-172-96-275-252-275-161 0-282 109-282 300" id="j"/><path d="M577 24c-279 0-473-224-473-580 0-354 195-576 474-576 218 0 287 134 324 193h14v-551h180V0H922v-173h-20C865-111 790 24 577 24zm27-161c203 0 314-172 314-421 0-247-108-413-314-413-212 0-317 181-317 413 0 235 108 421 317 421" id="k"/><path d="M158 0v-1118h180V0H158zm91-1301c-68 0-125-53-125-119s57-119 125-119c69 0 126 53 126 119s-57 119-126 119" id="l"/><path d="M598-1118v154H368v674c0 100 37 144 132 144 23 0 62-6 92-12L629-6c-37 13-88 20-134 20-193 0-307-107-307-290v-688H20v-154h168v-266h180v266h230" id="m"/><path d="M218-607c0-325 108-727 258-974h175c-155 315-250 682-250 974 0 265 78 531 250 886H476C306-10 218-315 218-607" id="n"/><path d="M677 24c-213 0-288-135-325-197h-20V0H158v-1490h180v551h14c37-59 106-193 324-193 279 0 474 222 474 576 0 356-194 580-473 580zm-27-161c209 0 317-186 317-421 0-232-105-413-317-413-206 0-314 166-314 413 0 249 111 421 314 421" id="o"/><path d="M338-1490V0H158v-1490h180" id="p"/><path d="M628 24c-324 0-524-230-524-574 0-343 198-582 503-582 237 0 487 146 487 559v75H286c9 234 145 362 343 362 132 0 231-58 273-172l174 48C1024-91 857 24 628 24zM287-650h624c-17-190-120-322-304-322-192 0-309 151-320 322" id="q"/><path d="M471 26C259 26 90-98 90-318c0-256 228-303 435-329 202-27 287-16 287-108 0-139-79-219-234-219-161 0-248 86-283 164l-173-57c86-203 278-265 451-265 150 0 419 46 419 395V0H815v-152h-12C765-73 660 26 471 26zm31-159c199 0 310-134 310-271v-155c-30 35-226 55-295 64-131 17-246 59-246 186 0 116 97 176 231 176" id="r"/><g id="a"><use transform="matrix(0.0126953125,0,0,0.0126953125,0,0)" xlink:href="#h"/><use transform="matrix(0.0126953125,0,0,0.0126953125,18.9921875,0)" xlink:href="#i"/><use transform="matrix(0.0126953125,0,0,0.0126953125,34.58203125,0)" xlink:href="#j"/><use transform="matrix(0.0126953125,0,0,0.0126953125,49.943359375,0)" xlink:href="#k"/><use transform="matrix(0.0126953125,0,0,0.0126953125,65.86328125,0)" xlink:href="#l"/><use transform="matrix(0.0126953125,0,0,0.0126953125,72.16015625,0)" xlink:href="#m"/><use transform="matrix(0.0126953125,0,0,0.0126953125,80.666015625,0)" xlink:href="#l"/><use transform="matrix(0.0126953125,0,0,0.0126953125,86.962890625,0)" xlink:href="#i"/><use transform="matrix(0.0126953125,0,0,0.0126953125,102.552734375,0)" xlink:href="#j"/><use transform="matrix(0.0126953125,0,0,0.0126953125,117.9140625,0)" xlink:href="#n"/><use transform="matrix(0.0126953125,0,0,0.0126953125,127.3974609375,0)" xlink:href="#o"/><use transform="matrix(0.0126953125,0,0,0.0126953125,143.3173828125,0)" xlink:href="#i"/><use transform="matrix(0.0126953125,0,0,0.0126953125,158.9072265625,0)" xlink:href="#i"/><use transform="matrix(0.0126953125,0,0,0.0126953125,174.4970703125,0)" xlink:href="#p"/><use transform="matrix(0.0126953125,0,0,0.0126953125,180.7939453125,0)" xlink:href="#q"/><use transform="matrix(0.0126953125,0,0,0.0126953125,196.2060546875,0)" xlink:href="#r"/><use transform="matrix(0.0126953125,0,0,0.0126953125,210.8056640625,0)" xlink:href="#j"/></g><path d="M65 0l393-574-370-544h210c88 136 192 297 267 435 67-142 176-302 264-435h206L661-564 1053 0H844c-94-144-206-310-287-458C484-308 366-142 273 0H65" id="s"/><path d="M158 418v-1536h174v179h20c37-59 106-193 324-193 279 0 474 222 474 576 0 356-194 580-473 580-213 0-288-135-325-197h-14v591H158zm492-555c209 0 317-186 317-421 0-232-105-413-317-413-206 0-314 166-314 413 0 249 111 421 314 421" id="t"/><path d="M158 0v-1118h174v172h12c41-113 157-188 290-188 26 0 70 2 91 3v181c-11-2-60-10-108-10-161 0-279 109-279 260V0H158" id="u"/><path d="M538 24C308 24 148-78 108-271l171-41c32 123 123 178 257 178 156 0 256-77 256-169 0-77-54-128-164-154l-186-44c-203-48-300-148-300-305 0-192 176-326 414-326 230 0 351 112 402 269l-163 42c-31-80-94-158-238-158-133 0-233 69-233 162 0 83 57 129 188 160l169 40c203 48 298 149 298 302 0 196-179 339-441 339" id="v"/><path d="M96 279C273-86 346-350 346-607c0-292-95-659-250-974h175c150 246 258 650 258 974 0 297-91 602-258 886H96" id="w"/><g id="b"><use transform="matrix(0.0126953125,0,0,0.0126953125,0,0)" xlink:href="#q"/><use transform="matrix(0.0126953125,0,0,0.0126953125,14.57421875,0)" xlink:href="#s"/><use transform="matrix(0.0126953125,0,0,0.0126953125,28.767578125,0)" xlink:href="#t"/><use transform="matrix(0.0126953125,0,0,0.0126953125,44.6875,0)" xlink:href="#u"/><use transform="matrix(0.0126953125,0,0,0.0126953125,54.0439453125,0)" xlink:href="#q"/><use transform="matrix(0.0126953125,0,0,0.0126953125,69.2021484375,0)" xlink:href="#v"/><use transform="matrix(0.0126953125,0,0,0.0126953125,82.92578125,0)" xlink:href="#v"/><use transform="matrix(0.0126953125,0,0,0.0126953125,96.6494140625,0)" xlink:href="#l"/><use transform="matrix(0.0126953125,0,0,0.0126953125,102.9462890625,0)" xlink:href="#i"/><use transform="matrix(0.0126953125,0,0,0.0126953125,118.5361328125,0)" xlink:href="#j"/><use transform="matrix(0.0126953125,0,0,0.0126953125,133.8974609375,0)" xlink:href="#w"/></g><path d="M180 0v-1490h528c311 0 458 177 458 395 0 191-114 278-244 313v14c139 9 302 137 302 371 0 225-148 397-499 397H180zm190-168h350c232 0 321-102 321-231 0-149-120-277-311-277H370v508zm0-668h328c160 0 286-101 286-255 0-129-87-231-280-231H370v486" id="x"/><path d="M140 405l46-156c120 36 205 19 263-150l32-93L54-1118h197c107 313 237 620 324 950 87-331 219-637 326-950h196L606 167c-68 178-176 259-334 259-64 0-113-12-132-21" id="y"/><g id="c"><use transform="matrix(0.0126953125,0,0,0.0126953125,0,0)" xlink:href="#x"/><use transform="matrix(0.0126953125,0,0,0.0126953125,17.01171875,0)" xlink:href="#i"/><use transform="matrix(0.0126953125,0,0,0.0126953125,32.6015625,0)" xlink:href="#k"/><use transform="matrix(0.0126953125,0,0,0.0126953125,48.6484375,0)" xlink:href="#y"/></g><path d="M678-1118v154H420V0H240v-964H20v-154h220v-149c0-194 155-293 318-293 85 0 141 18 168 30l-50 154c-19-6-47-17-97-17-111 0-159 58-159 166v109h258" id="z"/><g id="d"><use transform="matrix(0.0126953125,0,0,0.0126953125,0,0)" xlink:href="#i"/><use transform="matrix(0.0126953125,0,0,0.0126953125,15.58984375,0)" xlink:href="#z"/></g><g id="e"><use transform="matrix(0.0126953125,0,0,0.0126953125,0,0)" xlink:href="#l"/><use transform="matrix(0.0126953125,0,0,0.0126953125,6.296875,0)" xlink:href="#z"/></g><path fill="#e81313" d="M98-1322v-168h1126v168H757V0H567v-1322H98" id="A"/><path fill="#e81313" d="M158 0v-1118h174v172h12c41-113 157-188 290-188 26 0 70 2 91 3v181c-11-2-60-10-108-10-161 0-279 109-279 260V0H158" id="B"/><path fill="#e81313" d="M537 14c-226 0-379-139-379-422v-710h180v695c0 172 97 275 253 275 160 0 281-109 281-300v-670h181V0H879v-209C806-46 684 14 537 14" id="C"/><path fill="#e81313" d="M628 24c-324 0-524-230-524-574 0-343 198-582 503-582 237 0 487 146 487 559v75H286c9 234 145 362 343 362 132 0 231-58 273-172l174 48C1024-91 857 24 628 24zM287-650h624c-17-190-120-322-304-322-192 0-309 151-320 322" id="D"/><g id="f"><use transform="matrix(0.026041666666666668,0,0,0.026041666666666668,0,0)" xlink:href="#A"/><use transform="matrix(0.026041666666666668,0,0,0.026041666666666668,31.40625,0)" xlink:href="#B"/><use transform="matrix(0.026041666666666668,0,0,0.026041666666666668,51.484375,0)" xlink:href="#C"/><use transform="matrix(0.026041666666666668,0,0,0.026041666666666668,83.02083333333334,0)" xlink:href="#D"/></g><path fill="#e81313" d="M180 0v-1490h901v168H370v510h643v168H370V0H180" id="E"/><path fill="#e81313" d="M471 26C259 26 90-98 90-318c0-256 228-303 435-329 202-27 287-16 287-108 0-139-79-219-234-219-161 0-248 86-283 164l-173-57c86-203 278-265 451-265 150 0 419 46 419 395V0H815v-152h-12C765-73 660 26 471 26zm31-159c199 0 310-134 310-271v-155c-30 35-226 55-295 64-131 17-246 59-246 186 0 116 97 176 231 176" id="F"/><path fill="#e81313" d="M338-1490V0H158v-1490h180" id="G"/><path fill="#e81313" d="M538 24C308 24 148-78 108-271l171-41c32 123 123 178 257 178 156 0 256-77 256-169 0-77-54-128-164-154l-186-44c-203-48-300-148-300-305 0-192 176-326 414-326 230 0 351 112 402 269l-163 42c-31-80-94-158-238-158-133 0-233 69-233 162 0 83 57 129 188 160l169 40c203 48 298 149 298 302 0 196-179 339-441 339" id="H"/><g id="g"><use transform="matrix(0.026041666666666668,0,0,0.026041666666666668,0,0)" xlink:href="#E"/><use transform="matrix(0.026041666666666668,0,0,0.026041666666666668,30.182291666666668,0)" xlink:href="#F"/><use transform="matrix(0.026041666666666668,0,0,0.026041666666666668,60.130208333333336,0)" xlink:href="#G"/><use transform="matrix(0.026041666666666668,0,0,0.026041666666666668,73.046875,0)" xlink:href="#H"/><use transform="matrix(0.026041666666666668,0,0,0.026041666666666668,101.19791666666667,0)" xlink:href="#D"/></g></defs></g></svg>